<svg xmlns="http://www.w3.org/2000/svg" width="57.125" height="64.214" viewBox="0 0 57.125 64.214">
  <g id="Group_37" data-name="Group 37" transform="translate(0)">
    <g id="Group_36" data-name="Group 36" transform="translate(0)">
      <g id="Group_21" data-name="Group 21" transform="translate(15.94 31.686)">
        <path id="Path_426" data-name="Path 426" d="M1499.38,1395.063H1481.8a.58.58,0,0,1-.5-.293l-3.253-5.694a.58.58,0,0,1,.137-.738,19,19,0,0,1,24.818,0,.581.581,0,0,1,.138.738l-3.253,5.694A.582.582,0,0,1,1499.38,1395.063Zm-17.242-1.161h16.905l2.839-4.968a17.774,17.774,0,0,0-22.582,0Z" transform="translate(-1477.968 -1383.726)" fill="#3caaad"/>
      </g>
      <g id="Group_22" data-name="Group 22" transform="translate(22.181 20.529)">
        <ellipse id="Ellipse_89" data-name="Ellipse 89" cx="5.802" cy="5.802" rx="5.802" ry="5.802" transform="translate(0.581 0.58)" fill="#3caaad"/>
        <path id="Path_427" data-name="Path 427" d="M1493.924,1379.372a6.382,6.382,0,1,1,6.382-6.381A6.389,6.389,0,0,1,1493.924,1379.372Zm0-11.6a5.221,5.221,0,1,0,5.221,5.222A5.227,5.227,0,0,0,1493.924,1367.769Z" transform="translate(-1487.542 -1366.609)" fill="#3caaad"/>
      </g>
      <g id="Group_23" data-name="Group 23" transform="translate(5.065 5.063)">
        <path id="Path_428" data-name="Path 428" d="M1484.781,1396.969a.576.576,0,0,1-.29-.078l-22.917-13.231a.578.578,0,0,1-.29-.5v-26.464a.578.578,0,0,1,.29-.5l22.917-13.231a.577.577,0,0,1,.58,0l22.917,13.231a.58.58,0,0,1,.291.5v26.464a.58.58,0,0,1-.291.5l-22.917,13.231A.576.576,0,0,1,1484.781,1396.969Zm-22.337-14.147,22.337,12.9,22.337-12.9v-25.793l-22.337-12.9-22.337,12.9Z" transform="translate(-1461.284 -1342.882)" fill="#3caaad"/>
      </g>
      <g id="Group_24" data-name="Group 24" transform="translate(22.918)">
        <path id="Path_429" data-name="Path 429" d="M1499.692,1341.067a5.065,5.065,0,1,1-5.065-5.063A5.064,5.064,0,0,1,1499.692,1341.067Z" transform="translate(-1488.983 -1335.424)" fill="#3caaad"/>
        <path id="Path_430" data-name="Path 430" d="M1494.318,1346.4a5.644,5.644,0,1,1,5.646-5.645A5.652,5.652,0,0,1,1494.318,1346.4Zm0-10.129a4.484,4.484,0,1,0,4.485,4.483A4.489,4.489,0,0,0,1494.318,1336.274Z" transform="translate(-1488.673 -1335.114)" fill="#3caaad"/>
      </g>
      <g id="Group_25" data-name="Group 25" transform="translate(45.836 13.275)">
        <path id="Path_431" data-name="Path 431" d="M1534.853,1361.434a5.064,5.064,0,1,1-5.065-5.064A5.063,5.063,0,0,1,1534.853,1361.434Z" transform="translate(-1524.143 -1355.79)" fill="#3caaad"/>
        <path id="Path_432" data-name="Path 432" d="M1529.477,1366.768a5.644,5.644,0,1,1,5.645-5.644A5.651,5.651,0,0,1,1529.477,1366.768Zm0-10.127a4.483,4.483,0,1,0,4.484,4.483A4.488,4.488,0,0,0,1529.477,1356.641Z" transform="translate(-1523.833 -1355.48)" fill="#3caaad"/>
      </g>
      <g id="Group_26" data-name="Group 26" transform="translate(45.836 39.826)">
        <path id="Path_433" data-name="Path 433" d="M1534.853,1402.167a5.064,5.064,0,1,1-5.065-5.063A5.064,5.064,0,0,1,1534.853,1402.167Z" transform="translate(-1524.143 -1396.523)" fill="#3caaad"/>
        <path id="Path_434" data-name="Path 434" d="M1529.477,1407.5a5.644,5.644,0,1,1,5.645-5.644A5.651,5.651,0,0,1,1529.477,1407.5Zm0-10.127a4.483,4.483,0,1,0,4.484,4.483A4.488,4.488,0,0,0,1529.477,1397.374Z" transform="translate(-1523.833 -1396.213)" fill="#3caaad"/>
      </g>
      <g id="Group_27" data-name="Group 27" transform="translate(22.918 52.925)">
        <path id="Path_435" data-name="Path 435" d="M1499.692,1422.265a5.065,5.065,0,1,1-5.065-5.065A5.064,5.064,0,0,1,1499.692,1422.265Z" transform="translate(-1488.983 -1416.62)" fill="#3caaad"/>
        <path id="Path_436" data-name="Path 436" d="M1494.318,1427.6a5.644,5.644,0,1,1,5.646-5.644A5.651,5.651,0,0,1,1494.318,1427.6Zm0-10.128a4.484,4.484,0,1,0,4.485,4.484A4.49,4.49,0,0,0,1494.318,1417.471Z" transform="translate(-1488.673 -1416.31)" fill="#3caaad"/>
      </g>
      <g id="Group_28" data-name="Group 28" transform="translate(0 39.751)">
        <path id="Path_437" data-name="Path 437" d="M1464.532,1402.052a5.064,5.064,0,1,1-5.063-5.063A5.062,5.062,0,0,1,1464.532,1402.052Z" transform="translate(-1453.823 -1396.408)" fill="#3caaad"/>
        <path id="Path_438" data-name="Path 438" d="M1459.158,1407.386a5.644,5.644,0,1,1,5.644-5.644A5.652,5.652,0,0,1,1459.158,1407.386Zm0-10.127a4.483,4.483,0,1,0,4.483,4.483A4.489,4.489,0,0,0,1459.158,1397.259Z" transform="translate(-1453.513 -1396.098)" fill="#3caaad"/>
      </g>
      <g id="Group_29" data-name="Group 29" transform="translate(0 13.275)">
        <path id="Path_439" data-name="Path 439" d="M1464.532,1361.434a5.064,5.064,0,1,1-5.063-5.064A5.062,5.062,0,0,1,1464.532,1361.434Z" transform="translate(-1453.823 -1355.79)" fill="#3caaad"/>
        <path id="Path_440" data-name="Path 440" d="M1459.158,1366.768a5.644,5.644,0,1,1,5.644-5.644A5.652,5.652,0,0,1,1459.158,1366.768Zm0-10.127a4.483,4.483,0,1,0,4.483,4.483A4.489,4.489,0,0,0,1459.158,1356.641Z" transform="translate(-1453.513 -1355.48)" fill="#3caaad"/>
      </g>
      <g id="Group_30" data-name="Group 30" transform="translate(27.983 10.128)">
        <path id="Path_441" data-name="Path 441" d="M1497.023,1357.46a.58.58,0,0,1-.58-.581v-5.646a.58.58,0,1,1,1.161,0v5.646A.581.581,0,0,1,1497.023,1357.46Z" transform="translate(-1496.443 -1350.652)" fill="#3caaad"/>
      </g>
      <g id="Group_31" data-name="Group 31" transform="translate(27.983 47.279)">
        <path id="Path_442" data-name="Path 442" d="M1497.023,1414.455a.58.58,0,0,1-.58-.581v-5.646a.58.58,0,0,1,1.161,0v5.646A.581.581,0,0,1,1497.023,1414.455Z" transform="translate(-1496.443 -1407.648)" fill="#3caaad"/>
      </g>
      <g id="Group_32" data-name="Group 32" transform="translate(41.701 39.267)">
        <path id="Path_443" data-name="Path 443" d="M1522.987,1399.292a.579.579,0,0,1-.286-.075l-4.918-2.774a.581.581,0,0,1,.572-1.011l4.917,2.774a.581.581,0,0,1-.286,1.086Z" transform="translate(-1517.489 -1395.356)" fill="#3caaad"/>
      </g>
      <g id="Group_33" data-name="Group 33" transform="translate(9.345 21.011)">
        <path id="Path_444" data-name="Path 444" d="M1473.349,1371.285a.579.579,0,0,1-.285-.074l-4.919-2.775a.58.58,0,1,1,.57-1.011l4.919,2.775a.58.58,0,0,1-.286,1.086Z" transform="translate(-1467.85 -1367.349)" fill="#3caaad"/>
      </g>
      <g id="Group_34" data-name="Group 34" transform="translate(41.708 21.026)">
        <path id="Path_445" data-name="Path 445" d="M1518.08,1371.3a.58.58,0,0,1-.284-1.086l4.921-2.771a.58.58,0,0,1,.569,1.012l-4.921,2.77A.577.577,0,0,1,1518.08,1371.3Z" transform="translate(-1517.499 -1367.372)" fill="#3caaad"/>
      </g>
      <g id="Group_35" data-name="Group 35" transform="translate(9.337 39.255)">
        <path id="Path_446" data-name="Path 446" d="M1468.418,1399.269a.58.58,0,0,1-.285-1.086l4.921-2.77a.58.58,0,0,1,.569,1.011l-4.921,2.771A.573.573,0,0,1,1468.418,1399.269Z" transform="translate(-1467.837 -1395.337)" fill="#3caaad"/>
      </g>
    </g>
  </g>
</svg>
