<svg xmlns="http://www.w3.org/2000/svg" width="51.811" height="41.977" viewBox="0 0 51.811 41.977">
  <g id="Twitter" transform="translate(0 0)">
    <path id="Path_414" data-name="Path 414" d="M550.364,300.265c2.826,2.8,14.13,12.149,21.667,10.281,0-1.87-.837-4.181,1.883-8.412a9.1,9.1,0,0,1,4.71-3.738,9.914,9.914,0,0,1,7.536.935,33.721,33.721,0,0,0,3.768,1.87s4.711,0,6.594-1.87c.241.28-1.883,4.674-4.711,5.607a24.1,24.1,0,0,0,6.6-1.869,16.163,16.163,0,0,1-5.653,5.607c0,8.412-1.883,13.086-3.768,16.825-3.352,6.653-11.013,10.8-14.13,12.151-13.473,5.836-28.357-.922-28.26-2.805,3.768,0,11.3,0,16.013-4.672-3.768,0-9.42-2.805-10.362-7.477.943.934,3.768.934,4.711.934-1.885-.934-8.478-3.739-8.478-11.216a7.225,7.225,0,0,0,4.711,1.87C547.537,309.611,548.332,301.89,550.364,300.265Z" transform="translate(-546.596 -298)" fill="#fff"/>
  </g>
</svg>
