<svg xmlns="http://www.w3.org/2000/svg" width="710.348" height="888.108" viewBox="0 0 710.348 888.108">
  <g id="Group_82" data-name="Group 82" transform="translate(-83.183 -10.321)" opacity="0.199">
    <g id="Group_81" data-name="Group 81" transform="translate(124.797 364.154)">
      <path id="Path_487" data-name="Path 487" d="M691.617,57.673V252.052c0,148.693-120.97,269.656-269.649,269.656A270.008,270.008,0,0,1,159.3,312.758a195.055,195.055,0,0,1-70.547-32.228c12.023,173.98,156.86,311.419,333.919,311.419,184.912,0,334.815-149.9,334.815-334.83A333.462,333.462,0,0,0,691.617,57.673Z" transform="translate(-88.752 -57.673)" fill="#fff"/>
    </g>
    <path id="Path_488" data-name="Path 488" d="M377.037,48.388A89.8,89.8,0,0,0,386.5,95.33a65.329,65.329,0,0,0,3.856,6.606l9.071,11.455h86.882V330.718c0,89.407-72.721,162.166-162.128,162.166-70.285,0-130.229-44.969-152.668-107.64a196.428,196.428,0,0,1-65.667,11.313c-.628,0-1.323-.03-1.98-.03C132.234,491.4,220.206,560.763,324.177,560.763c126.829,0,230.037-103.186,230.037-230.045V45.519h-176.9C377.216,46.461,377.1,47.342,377.037,48.388Z" transform="translate(133.836 227.815)" fill="#fff"/>
    <path id="Path_489" data-name="Path 489" d="M185.144,348.45a154.868,154.868,0,0,0,44.319,9.49c3.385.232,6.785.374,10.215.374,2.309,0,4.588-.067,6.86-.157a155.622,155.622,0,0,0,84.035-28.941,159.744,159.744,0,0,0,19.779-16.738l-24.009-24-24.009-24a88.532,88.532,0,0,1-151.107-59.929c-.03-.919-.134-1.823-.134-2.742a88.681,88.681,0,0,1,122.5-81.9L216.924,176.54l24.009,24.024,24.009,23.994L374.36,115.139,350.351,91.131A156.394,156.394,0,0,0,184.195,55.51C125.23,77.942,83.183,135.046,83.183,201.8A156.8,156.8,0,0,0,185.144,348.45Z" transform="translate(0 226.462)" fill="#fff"/>
    <path id="Path_490" data-name="Path 490" d="M185.772,335.228c3.415,2.174,6.755,4.185,9.923,5.978,5.784,3.318,10.887,5.926,14.975,7.9,5.814,2.8,9.475,4.274,9.475,4.274a92.353,92.353,0,0,1-7.286-12.172,129.033,129.033,0,0,1-13.734-67.872,134.122,134.122,0,0,1,1.883-15.034,89.069,89.069,0,0,1,8.892-24.577c.68-1.3,1.412-2.585,2.144-3.871,23.2-40.336,70.913-70.5,70.913-110.218,0-9.019-2.085-18.449-5.5-27.857-14.885-41.143-54.922-81.457-54.922-81.457,3.153,28.343.306,51.627-6.015,71.675-20.474,65.107-77.93,95.841-89.624,152.175-.1.516-.247.994-.351,1.517C117.721,281.942,155.591,315.979,185.772,335.228Z" transform="translate(272.241 0)" fill="#fff"/>
  </g>
</svg>
