<svg id="Group_78" data-name="Group 78" xmlns="http://www.w3.org/2000/svg" width="63.075" height="37.952" viewBox="0 0 63.075 37.952">
  <g id="Group_73" data-name="Group 73" transform="translate(0)">
    <g id="Group_72" data-name="Group 72">
      <path id="Path_462" data-name="Path 462" d="M589.924,3680.79c-17.044,0-30.494-16.823-31.059-17.54a2.355,2.355,0,0,1,0-2.872c.564-.716,14.015-17.54,31.059-17.54,17.025,0,30.475,16.824,31.04,17.54a2.355,2.355,0,0,1,0,2.872C620.4,3663.966,606.949,3680.79,589.924,3680.79Zm-26.767-18.976c3.557,3.932,14.332,14.573,26.767,14.573,12.451,0,23.2-10.637,26.749-14.571-3.555-3.931-14.328-14.575-26.749-14.575S566.715,3657.882,563.158,3661.814Z" transform="translate(-558.377 -3642.838)" fill="#fff"/>
    </g>
  </g>
  <g id="Group_75" data-name="Group 75" transform="translate(14.173)">
    <g id="Group_74" data-name="Group 74" transform="translate(0)">
      <path id="Path_463" data-name="Path 463" d="M594.22,3680.79c-9.575,0-17.365-8.514-17.365-18.976s7.79-18.976,17.365-18.976,17.365,8.514,17.365,18.976S603.794,3680.79,594.22,3680.79Zm0-33.549c-7.354,0-13.336,6.538-13.336,14.573s5.983,14.573,13.336,14.573,13.336-6.537,13.336-14.573S601.574,3647.241,594.22,3647.241Z" transform="translate(-576.855 -3642.838)" fill="#fff"/>
    </g>
  </g>
  <g id="Group_77" data-name="Group 77" transform="translate(24.123 10.163)">
    <g id="Group_76" data-name="Group 76" transform="translate(0 0)">
      <path id="Path_464" data-name="Path 464" d="M597.885,3670.249a8.058,8.058,0,1,1,8.058-8.057A8.066,8.066,0,0,1,597.885,3670.249Zm0-12.086a4.029,4.029,0,1,0,4.029,4.029A4.034,4.034,0,0,0,597.885,3658.163Z" transform="translate(-589.828 -3654.133)" fill="#fff"/>
    </g>
  </g>
</svg>
