<svg xmlns="http://www.w3.org/2000/svg" width="59.568" height="59.568" viewBox="0 0 59.568 59.568">
  <path id="Path_425" data-name="Path 425" d="M929.97,1333.963a29.783,29.783,0,1,1-21.061,8.723,29.695,29.695,0,0,1,21.061-8.723Zm1.256,2.54v7.76a19.531,19.531,0,0,1,18.228,18.228h7.76a27.275,27.275,0,0,0-25.988-25.988Zm0,9.019v8.413a9.9,9.9,0,0,1,8.555,8.556h8.413a18.27,18.27,0,0,0-16.968-16.969Zm0,9.681v7.289h7.287a8.643,8.643,0,0,0-7.287-7.289Zm0,9.8v7.289a8.643,8.643,0,0,0,7.287-7.289Zm0,8.556v8.413A18.269,18.269,0,0,0,948.194,1365h-8.413a9.9,9.9,0,0,1-8.555,8.556Zm0,9.672v7.76A27.275,27.275,0,0,0,957.214,1365h-7.76a19.531,19.531,0,0,1-18.228,18.228Zm-2.513,7.76v-7.76A19.524,19.524,0,0,1,910.486,1365h-7.76a27.27,27.27,0,0,0,25.987,25.988Zm0-9.019v-8.413a9.9,9.9,0,0,1-8.556-8.556h-8.412a18.269,18.269,0,0,0,16.968,16.969Zm0-9.681V1365h-7.287a8.641,8.641,0,0,0,7.287,7.289Zm0-9.8V1355.2a8.641,8.641,0,0,0-7.287,7.289Zm0-8.556v-8.413a18.27,18.27,0,0,0-16.968,16.969h8.412a9.9,9.9,0,0,1,8.556-8.556Zm0-9.672v-7.76a27.27,27.27,0,0,0-25.987,25.988h7.76a19.528,19.528,0,0,1,18.227-18.228Z" transform="translate(-900.185 -1333.963)" fill="#3caaad" fill-rule="evenodd"/>
</svg>
