<svg id="Group_71" data-name="Group 71" xmlns="http://www.w3.org/2000/svg" width="34.843" height="34.859" viewBox="0 0 34.843 34.859">
  <g id="Group_70" data-name="Group 70">
    <rect id="Rectangle_619" data-name="Rectangle 619" width="7.194" height="23.239" transform="translate(0.692 11.62)" fill="#fff"/>
    <path id="Path_459" data-name="Path 459" d="M1532.379,3832.119a4.288,4.288,0,1,0-4.254-4.29A4.273,4.273,0,0,0,1532.379,3832.119Z" transform="translate(-1528.125 -3823.542)" fill="#fff"/>
  </g>
  <path id="Path_460" data-name="Path 460" d="M1545.829,3844.736c0-3.268,1.5-5.214,4.384-5.214,2.645,0,3.916,1.868,3.916,5.214v12.2h7.159v-14.714c0-6.224-3.527-9.234-8.455-9.234a8.1,8.1,0,0,0-7,3.84v-3.13h-6.9v23.237h6.9Z" transform="translate(-1526.445 -3822.074)" fill="#fff"/>
</svg>
