<svg xmlns="http://www.w3.org/2000/svg" width="418.715" height="130.525" viewBox="0 0 418.715 130.525">
  <g id="Group_79" data-name="Group 79" transform="translate(-181.569 -63.427)">
    <path id="Path_467" data-name="Path 467" d="M263.618,127.79c-.016.153-.036.295-.045.465a14.523,14.523,0,0,0,1.53,7.593,10.746,10.746,0,0,0,.623,1.07l1.469,1.854h14.054v35.156a26.225,26.225,0,0,1-50.924,8.82,31.788,31.788,0,0,1-10.622,1.83c-.1,0-.215,0-.321,0a37.2,37.2,0,0,0,72.853-10.645V127.79H263.618Z" transform="translate(-12.817 -21.817)" fill="#fff"/>
    <path id="Path_468" data-name="Path 468" d="M207.995,178.015a25.184,25.184,0,0,0,13.594-4.681,25.842,25.842,0,0,0,3.2-2.708l-3.884-3.881-3.884-3.884a14.322,14.322,0,0,1-24.445-9.694c0-.149-.021-.3-.021-.444a14.347,14.347,0,0,1,19.818-13.249l-9.168,9.163,3.884,3.886,3.884,3.881,17.7-17.7-3.884-3.884a25.313,25.313,0,1,0-19.555,43.16c.548.038,1.1.061,1.653.061C207.258,178.042,207.627,178.03,207.995,178.015Z" transform="translate(0 -21.687)" fill="#fff"/>
    <path id="Path_469" data-name="Path 469" d="M268.277,115.985c.552.352,1.093.678,1.6.968.935.536,1.762.958,2.423,1.277.939.453,1.532.692,1.532.692a14.979,14.979,0,0,1-1.178-1.969,20.872,20.872,0,0,1-2.222-10.98,21.7,21.7,0,0,1,.3-2.432,14.4,14.4,0,0,1,1.438-3.975c.111-.21.229-.418.347-.626C276.28,92.414,284,87.534,284,81.11a13.363,13.363,0,0,0-.89-4.507c-2.408-6.656-8.884-13.176-8.884-13.176a27.678,27.678,0,0,1-.972,11.594c-3.312,10.531-12.607,15.5-14.5,24.617-.017.083-.04.161-.057.246C257.268,107.366,263.395,112.871,268.277,115.985Z" transform="translate(-26.073 0)" fill="#fff"/>
    <path id="Path_470" data-name="Path 470" d="M397.309,152.048h17.735v-8.626H397.309v-5.359h18.807v-8.895H386.86v37.508h30.007v-8.948H397.309Z" transform="translate(-69.588 -22.284)" fill="#fff"/>
    <path id="Path_471" data-name="Path 471" d="M451.427,158.306a15.051,15.051,0,0,1-10.985-4.231l-5.841,6.7c5.2,5.467,10.019,6.645,16.772,6.59,8.412-.054,16.451-3.7,16.451-12.218,0-8.625-7.772-11.627-15.219-12.43-3.7-.375-6.216-.751-6.216-3.322,0-1.983,2.519-2.788,5.091-2.788a14.05,14.05,0,0,1,8.79,2.572l5.248-6.7c-4.016-3.161-8.41-4.448-14.038-4.448-7.93,0-15.7,3.428-15.7,11.361,0,9.323,7.071,11.413,15.27,12.164,4.125.374,6.271,1.553,6.271,3.427C457.322,157.074,454.909,158.306,451.427,158.306Z" transform="translate(-85.771 -21.899)" fill="#fff"/>
    <path id="Path_472" data-name="Path 472" d="M500.248,156.55h7.609c10.02-.108,15.056-6.056,15.056-13.718,0-7.343-4.982-13.664-15.056-13.664H489.638v37.508h10.61Zm0-18.273h7.609a4.4,4.4,0,0,1,4.448,4.717,4.286,4.286,0,0,1-4.448,4.607h-7.609Z" transform="translate(-104.427 -22.284)" fill="#fff"/>
    <path id="Path_473" data-name="Path 473" d="M554.879,154.512h3.7l8.733,12.164h11.682v-.643l-9.753-12.646c6.323-2.787,7.93-6.7,7.93-11.308,0-6.75-4.984-12.912-14.576-12.912H544.269v37.508h10.61Zm0-16.878h7.715c2.786,0,4.129,2.3,4.129,4.663,0,2.249-1.235,4.339-4.02,4.339h-7.824Z" transform="translate(-122.945 -22.284)" fill="#fff"/>
    <path id="Path_474" data-name="Path 474" d="M631.179,157.728H611.621v-5.68h17.738v-8.626H611.621v-5.359h18.809v-8.895H601.175v37.508h30Z" transform="translate(-142.235 -22.284)" fill="#fff"/>
    <path id="Path_475" data-name="Path 475" d="M665.74,158.306a15.043,15.043,0,0,1-10.983-4.231l-5.841,6.7c5.2,5.467,10.019,6.645,16.772,6.59,8.412-.054,16.448-3.7,16.448-12.218,0-8.625-7.768-11.627-15.218-12.43-3.7-.375-6.214-.751-6.214-3.322,0-1.983,2.519-2.788,5.091-2.788a14.038,14.038,0,0,1,8.787,2.572l5.253-6.7c-4.021-3.161-8.414-4.448-14.04-4.448-7.93,0-15.7,3.428-15.7,11.361,0,9.323,7.073,11.413,15.27,12.164,4.127.374,6.271,1.553,6.271,3.427C671.635,157.074,669.221,158.306,665.74,158.306Z" transform="translate(-158.418 -21.899)" fill="#fff"/>
    <path id="Path_476" data-name="Path 476" d="M718.064,142.715c-3.7-.375-6.216-.751-6.216-3.322,0-1.983,2.517-2.788,5.09-2.788a14.04,14.04,0,0,1,8.788,2.572l5.253-6.7c-4.02-3.161-8.412-4.448-14.04-4.448-7.93,0-15.7,3.428-15.7,11.361,0,9.323,7.074,11.413,15.273,12.164,4.124.374,6.268,1.553,6.268,3.427,0,2.09-2.413,3.322-5.9,3.322a15.047,15.047,0,0,1-10.983-4.231l-5.841,6.7c5.2,5.467,10.02,6.645,16.772,6.59,8.412-.054,16.449-3.7,16.449-12.218C733.281,146.52,725.511,143.517,718.064,142.715Z" transform="translate(-175.754 -21.899)" fill="#fff"/>
    <path id="Path_477" data-name="Path 477" d="M772.781,167.12c12.324,0,20.842-7.127,20.842-19.665,0-12.484-8.518-19.665-20.842-19.665-12.272,0-20.844,7.34-20.844,19.665C751.937,159.993,760.509,167.12,772.781,167.12Zm0-30.276c6.214,0,10.235,4.181,10.235,10.611,0,6.215-4.02,10.611-10.235,10.611-6,0-10.237-4.34-10.237-10.611C762.545,141.24,766.724,136.844,772.781,136.844Z" transform="translate(-193.339 -21.817)" fill="#fff"/>
    <path id="Path_478" data-name="Path 478" d="M391.365,211.413h9.968v12.376c0,5.093-2.625,7.824-7.073,7.824-3.7,0-6.8-2.141-6.913-7.768h-10.34c0,11.734,6.322,16.985,17.145,16.985,11.521,0,17.792-7.125,17.792-16.985V202.517H391.365Z" transform="translate(-66.248 -47.148)" fill="#fff"/>
    <path id="Path_479" data-name="Path 479" d="M455.4,201.142c-12.27,0-20.845,7.339-20.845,19.663,0,12.539,8.575,19.667,20.845,19.667,12.324,0,20.844-7.128,20.844-19.667C476.243,208.321,467.722,201.142,455.4,201.142Zm0,30.274c-6,0-10.235-4.34-10.235-10.611,0-6.213,4.179-10.609,10.235-10.609,6.216,0,10.234,4.179,10.234,10.609C465.633,227.023,461.615,231.416,455.4,231.416Z" transform="translate(-85.755 -46.682)" fill="#fff"/>
    <path id="Path_480" data-name="Path 480" d="M531.8,220.307c3.269-1.5,4.124-4.445,4.124-7.287,0-7.179-6.107-10.5-13.608-10.5H503.132v37.507h19.343c6.858-.05,14.521-2.571,14.521-10.982A9.857,9.857,0,0,0,531.8,220.307Zm-18.219-9.215h8.575a2.936,2.936,0,0,1,3.267,2.946c0,1.661-1.178,2.786-3.374,2.786h-8.468Zm8.948,20.682h-8.948v-7.125h8.948c2.628,0,3.966,1.553,3.966,3.59C526.493,230.327,525.206,231.773,522.527,231.773Z" transform="translate(-109.001 -47.148)" fill="#fff"/>
    <path id="Path_481" data-name="Path 481" d="M574.306,216.067c-3.7-.378-6.214-.752-6.214-3.324,0-1.983,2.517-2.787,5.09-2.787a14.045,14.045,0,0,1,8.788,2.573l5.251-6.7c-4.018-3.161-8.412-4.448-14.038-4.448-7.932,0-15.7,3.429-15.7,11.36,0,9.324,7.071,11.414,15.273,12.164,4.122.375,6.268,1.554,6.268,3.43,0,2.09-2.413,3.32-5.9,3.32a15.044,15.044,0,0,1-10.986-4.232l-5.84,6.7c5.2,5.465,10.019,6.641,16.772,6.589,8.412-.054,16.45-3.7,16.45-12.217C589.524,219.87,581.754,216.87,574.306,216.067Z" transform="translate(-127.024 -46.763)" fill="#fff"/>
    <path id="Path_482" data-name="Path 482" d="M614.291,245.237c-7.125,0-7.017,9.7,0,9.7C621.419,254.935,621.471,245.237,614.291,245.237Z" transform="translate(-144.883 -61.629)" fill="#fff"/>
    <path id="Path_483" data-name="Path 483" d="M647.749,231.551c-7.4,0-9.966-5.522-10.022-10.4s2.786-10.77,10.022-10.77a11.036,11.036,0,0,1,7.982,3.269l6.54-6.43a20.1,20.1,0,0,0-14.522-6c-14.094,0-20.578,10.236-20.523,19.88.054,10.182,5.786,19.451,20.523,19.451a20.5,20.5,0,0,0,15.056-5.841l-6.216-6.965A12.974,12.974,0,0,1,647.749,231.551Z" transform="translate(-151.065 -46.708)" fill="#fff"/>
    <path id="Path_484" data-name="Path 484" d="M700.836,201.142c-12.269,0-20.844,7.339-20.844,19.663,0,12.539,8.575,19.667,20.844,19.667,12.324,0,20.844-7.128,20.844-19.667C721.68,208.321,713.16,201.142,700.836,201.142Zm0,30.274c-6,0-10.235-4.34-10.235-10.611,0-6.213,4.179-10.609,10.235-10.609,6.216,0,10.235,4.179,10.235,10.609C711.071,227.023,707.052,231.416,700.836,231.416Z" transform="translate(-168.952 -46.682)" fill="#fff"/>
    <path id="Path_485" data-name="Path 485" d="M769.517,215.217l-9.859-12.7H748.569v37.507h10.5V217.736l9.377,11.306h1.875l9.592-11.359v22.342h10.5V202.517H779.379Z" transform="translate(-192.197 -47.148)" fill="#fff"/>
  </g>
</svg>
