<svg xmlns="http://www.w3.org/2000/svg" width="54.418" height="44.005" viewBox="0 0 54.418 44.005">
  <g id="Group_65" data-name="Group 65" transform="translate(0.5 0.509)">
    <g id="Group_63" data-name="Group 63" transform="translate(20.452 9.143)">
      <g id="Group_62" data-name="Group 62">
        <g id="Group_61" data-name="Group 61">
          <g id="Group_60" data-name="Group 60">
            <path id="Path_457" data-name="Path 457" d="M1513.992,3515.124a5,5,0,0,0-2.043-.409,4.524,4.524,0,0,0-4.506,4.562,2.147,2.147,0,0,0,2.051,2.377,2.984,2.984,0,0,0,2.7-1.674h.059a1.405,1.405,0,0,0,1.436,1.656c1.795-.006,3.393-1.674,3.382-4.555a5.316,5.316,0,0,0-5.578-5.5c-4.255.019-6.953,3.446-6.937,7.378a5.686,5.686,0,0,0,5.807,5.953,7.009,7.009,0,0,0,3.393-.778l-.3-.82a5.994,5.994,0,0,1-2.9.68c-2.805.013-4.894-1.966-4.907-5.153-.014-3.874,2.592-6.347,5.683-6.36,2.975-.011,4.646,1.967,4.66,4.754.005,2.2-1.078,3.5-2.051,3.482-.631-.016-.863-.682-.58-2.134Zm-1.706,2.911c-.2,1.183-1.212,2.6-2.317,2.6-.838,0-1.261-.585-1.264-1.445a3.3,3.3,0,0,1,3.021-3.465,3.2,3.2,0,0,1,.951.146Z" transform="translate(-1504.56 -3511.583)" fill="#fff" stroke="#fff" stroke-miterlimit="10" stroke-width="1"/>
          </g>
        </g>
      </g>
    </g>
    <g id="Group_64" data-name="Group 64" transform="translate(0 0)">
      <path id="Path_458" data-name="Path 458" d="M1550.081,3522.725l-8.192-4.536v-3.357a3.154,3.154,0,0,0-3.148-3.15h-8.6l-6.172-3.417a.592.592,0,0,0-.577,0l-6.171,3.417h-8.6a3.153,3.153,0,0,0-3.147,3.15v3.357l-8.193,4.536a.6.6,0,0,0-.307.521v25.6a2.34,2.34,0,0,0,2.339,2.339h48.74a2.342,2.342,0,0,0,2.339-2.339v-25.6A.6.6,0,0,0,1550.081,3522.725Zm-8.192-3.177,6.309,3.493c-.892.571-2.695,1.735-6.309,4.1Zm-18.21-10.084,4.008,2.218h-8.015Zm-17.021,9.817v-4.449a1.963,1.963,0,0,1,1.959-1.962h30.124a1.963,1.963,0,0,1,1.959,1.962v13.081c-3.064,2-7.246,4.742-12.96,8.491l-3.754-2.231-.056-.03-.022-.007-.03-.013-.035-.009-.021-.008-.035-.005-.022-.005-.032,0-.024,0h-.06l-.024,0-.033,0-.021.005-.035.005-.021.008-.035.009-.03.013-.022.007-.056.03-3.74,2.223c-5.721-3.756-9.909-6.5-12.973-8.5Zm-1.188.267v7.57c-3.614-2.355-5.409-3.516-6.3-4.085Zm-7.271,29.6a1.212,1.212,0,0,1-.041-.3V3523.8c1.172.743,5.406,3.473,20.336,13.277l-20.187,11.99A.54.54,0,0,0,1498.2,3549.146Zm49.85.852h-48.74a1.217,1.217,0,0,1-.216-.022l24.585-14.6,24.586,14.6A1.215,1.215,0,0,1,1548.05,3550Zm1.151-1.151a1.235,1.235,0,0,1-.04.3.54.54,0,0,0-.108-.083l-20.173-11.981c14.838-9.745,19.117-12.5,20.322-13.272Z" transform="translate(-1496.971 -3508.19)" fill="#fff" stroke="#fff" stroke-miterlimit="10" stroke-width="1"/>
    </g>
  </g>
</svg>
